<svg width="32" height="32" viewBox="0 0 32 32" fill="none" xmlns="http://www.w3.org/2000/svg">
  <path d="M16 .64a15.36 15.36 0 100 30.72A15.36 15.36 0 0016 .64zm5.9 17.33s1.37 1.34 1.7 1.96l.02.03c.13.23.17.41.1.54-.11.22-.5.33-.63.34h-2.4c-.17 0-.51-.04-.94-.33-.32-.23-.64-.6-.95-.96-.47-.55-.87-1.01-1.28-1.01-.05 0-.1 0-.15.02-.3.1-.7.54-.7 1.7 0 .37-.29.58-.5.58h-1.1c-.37 0-2.32-.13-4.04-1.95C8.9 16.66 7 12.18 6.99 12.14c-.12-.3.13-.45.4-.45H9.8c.33 0 .43.2.5.37.1.2.4 1.02.93 1.92.84 1.49 1.36 2.09 1.77 2.09.08 0 .16-.02.23-.06.54-.3.44-2.23.41-2.63 0-.07 0-.86-.28-1.24-.2-.27-.53-.38-.74-.42.08-.11.2-.2.32-.27a4.44 4.44 0 011.7-.2h.37c.72 0 .91.05 1.17.11.53.13.54.47.5 1.64-.02.33-.04.7-.04 1.14v.31c-.02.6-.04 1.27.38 1.55.06.03.12.05.19.05.14 0 .58 0 1.77-2.04.36-.65.68-1.34.95-2.04.02-.04.1-.17.18-.22a.43.43 0 01.2-.04h2.84c.32 0 .53.04.57.16.07.2-.01.77-1.32 2.54l-.58.76c-1.18 1.55-1.18 1.63.08 2.8z" fill="#fff"/>
</svg>
