<svg width="32" height="32" viewBox="0 0 32 32" fill="none" xmlns="http://www.w3.org/2000/svg">
<rect width="32" height="32" fill="#E6C8B4"/>
<path d="M26 18.1418V15.2842C25.8588 13.7754 24.783 13.7885 23.1429 13.8555V19.5705C25.7761 19.8442 25.9099 18.8086 26 18.1418ZM8.85715 19.5705V13.8555C7.21691 13.7885 6.14125 13.7754 6 15.2842V18.1418C6.09008 18.8086 6.22391 19.8442 8.85715 19.5706V19.5705ZM6.7143 23.1425H25.2857V26H6.7143V23.1425ZM18.825 8.85472C18.3748 5.15726 13.7126 4.94113 13.175 8.85472H18.825ZM6.83914 7.28362C7.22398 6.55738 8.25594 6.51503 8.69219 7.20757C9.06828 7.80452 8.76066 8.56675 8.14266 8.78686L8.14285 13.141H7.42855V8.78886C6.84211 8.58526 6.52035 7.88519 6.83914 7.28362ZM19.5714 14.927C19.5714 15.7488 18.6757 16.2653 17.9631 15.8543C17.2504 15.4434 17.2504 14.4106 17.9631 13.9996C18.6758 13.5887 19.5714 14.1051 19.5714 14.927V14.927ZM12.9631 15.8543C13.6757 16.2653 14.5714 15.7488 14.5714 14.927C14.5714 14.1051 13.6757 13.5887 12.9631 13.9996C12.2504 14.4106 12.2504 15.4434 12.9631 15.8543V15.8543ZM22.4286 12.4266V22.4281H9.57148V12.4267C9.57148 10.8486 10.8508 9.56913 12.4286 9.56913H19.5715C21.1493 9.56913 22.4286 10.8486 22.4286 12.4267L22.4286 12.4266ZM12.6051 16.4727C13.7929 17.1575 15.2857 16.2968 15.2857 14.9271C15.2857 13.5573 13.7929 12.6966 12.6051 13.3815C11.4173 14.0663 11.4173 15.7878 12.6051 16.4727ZM19.5714 18.8562H12.4285V20.285H19.5715V18.8562H19.5714ZM20.2857 14.9271C20.2857 13.5573 18.7929 12.6966 17.6051 13.3815C16.4173 14.0663 16.4173 15.7878 17.6051 16.4727C18.7929 17.1575 20.2857 16.2968 20.2857 14.9271Z" fill="black"/>
</svg>
