<svg width="24" height="24" fill="none" xmlns="http://www.w3.org/2000/svg"><path d="M13.8 4.8a1.8 1.8 0 10-3.6 0H9a3 3 0 116 0h5.4a.6.6 0 010 1.2h-.665L18.18 19.476a2.4 2.4 0 01-2.384 2.124H8.204a2.4 2.4 0 01-2.384-2.124L4.264 6H3.6a.6.6 0 01-.59-.492L3 5.4a.6.6 0 01.6-.6h10.2zM18.526 6H5.473l1.539 13.338A1.2 1.2 0 008.204 20.4h7.592a1.2 1.2 0 001.191-1.062L18.526 6zM10.2 9c.294 0 .54.186.59.43l.01.096v7.35c0 .289-.269.524-.6.524-.294 0-.54-.186-.59-.43l-.01-.096V9.527c0-.29.269-.526.6-.526V9zm3.6 0c.294 0 .54.186.59.43l.01.096v7.35c0 .289-.269.524-.6.524-.294 0-.54-.186-.59-.43l-.01-.096V9.527c0-.29.269-.526.6-.526V9z" fill="#000"/></svg>