<svg width="128" height="21" viewBox="0 0 128 21" fill="none" xmlns="http://www.w3.org/2000/svg">
<path d="M0.464 0.559999H6.632C9.992 0.559999 11.672 2.424 11.672 6.152C11.672 8.12 11.192 9.52 10.232 10.352C9.272 11.168 7.936 11.576 6.224 11.576H4.4V20H0.464V0.559999ZM5.816 8.792C6.664 8.792 7.232 8.592 7.52 8.192C7.808 7.792 7.952 7.088 7.952 6.08C7.952 5.424 7.904 4.912 7.808 4.544C7.712 4.16 7.504 3.864 7.184 3.656C6.88 3.448 6.416 3.344 5.792 3.344H4.4V8.792H5.816ZM13.6828 0.559999H18.7228C20.8188 0.559999 22.3948 0.943999 23.4508 1.712C24.5068 2.48 25.0348 3.808 25.0348 5.696C25.0348 6.96 24.8588 7.984 24.5068 8.768C24.1548 9.536 23.5308 10.12 22.6348 10.52L25.3228 20H21.2668L19.0588 11.192H17.6188V20H13.6828V0.559999ZM18.7948 8.84C19.7228 8.84 20.3708 8.616 20.7388 8.168C21.1228 7.704 21.3148 6.984 21.3148 6.008C21.3148 5.048 21.1468 4.344 20.8108 3.896C20.4748 3.448 19.8668 3.224 18.9868 3.224H17.6188V8.84H18.7948ZM32.9823 20.264C30.9183 20.264 29.4463 19.728 28.5663 18.656C27.6863 17.568 27.2463 15.976 27.2463 13.88V6.632C27.2463 4.536 27.6863 2.96 28.5663 1.904C29.4463 0.847999 30.9183 0.319999 32.9823 0.319999C35.0303 0.319999 36.4943 0.855999 37.3743 1.928C38.2703 2.984 38.7183 4.552 38.7183 6.632V13.904C38.7183 15.984 38.2703 17.568 37.3743 18.656C36.4943 19.728 35.0303 20.264 32.9823 20.264ZM32.9823 17.432C33.6543 17.432 34.1023 17.208 34.3263 16.76C34.5663 16.296 34.6863 15.664 34.6863 14.864V5.672C34.6863 4.872 34.5663 4.256 34.3263 3.824C34.1023 3.376 33.6543 3.152 32.9823 3.152C32.3103 3.152 31.8543 3.376 31.6143 3.824C31.3903 4.256 31.2783 4.872 31.2783 5.672V14.864C31.2783 15.68 31.3903 16.312 31.6143 16.76C31.8383 17.208 32.2943 17.432 32.9823 17.432ZM41.6264 0.559999H45.8264L48.2264 12.824L50.7704 0.559999H54.8264L55.1864 20H52.3064L51.9944 6.8L49.4984 20H47.0504L44.4824 6.728L44.1944 20H41.2904L41.6264 0.559999ZM63.4979 20.264C61.4339 20.264 59.9619 19.728 59.0819 18.656C58.2019 17.568 57.7619 15.976 57.7619 13.88V6.632C57.7619 4.536 58.2019 2.96 59.0819 1.904C59.9619 0.847999 61.4339 0.319999 63.4979 0.319999C65.5459 0.319999 67.0099 0.855999 67.8899 1.928C68.7859 2.984 69.2339 4.552 69.2339 6.632V13.904C69.2339 15.984 68.7859 17.568 67.8899 18.656C67.0099 19.728 65.5459 20.264 63.4979 20.264ZM63.4979 17.432C64.1699 17.432 64.6179 17.208 64.8419 16.76C65.0819 16.296 65.2019 15.664 65.2019 14.864V5.672C65.2019 4.872 65.0819 4.256 64.8419 3.824C64.6179 3.376 64.1699 3.152 63.4979 3.152C62.8259 3.152 62.3699 3.376 62.1299 3.824C61.9059 4.256 61.7939 4.872 61.7939 5.672V14.864C61.7939 15.68 61.9059 16.312 62.1299 16.76C62.3539 17.208 62.8099 17.432 63.4979 17.432ZM71.8781 0.559999H76.8221C78.7101 0.559999 80.1741 0.927999 81.2141 1.664C82.2541 2.384 82.7741 3.696 82.7741 5.6C82.7741 6.752 82.5261 7.664 82.0301 8.336C81.5501 8.992 80.8541 9.4 79.9421 9.56C81.0781 9.72 81.9261 10.2 82.4861 11C83.0621 11.8 83.3501 12.896 83.3501 14.288C83.3501 18.096 81.4621 20 77.6861 20H71.8781V0.559999ZM76.8221 8.408C77.7821 8.408 78.4381 8.192 78.7901 7.76C79.1421 7.328 79.3181 6.64 79.3181 5.696C79.3181 4.832 79.0941 4.216 78.6461 3.848C78.1981 3.464 77.5021 3.272 76.5581 3.272H75.8141V8.408H76.8221ZM76.9421 17.216C77.9021 17.216 78.5741 16.976 78.9581 16.496C79.3581 16.016 79.5581 15.256 79.5581 14.216C79.5581 13.096 79.3501 12.296 78.9341 11.816C78.5341 11.32 77.8461 11.072 76.8701 11.072H75.8141V17.216H76.9421ZM91.1308 20.264C89.0668 20.264 87.5948 19.728 86.7148 18.656C85.8348 17.568 85.3948 15.976 85.3948 13.88V6.632C85.3948 4.536 85.8348 2.96 86.7148 1.904C87.5948 0.847999 89.0668 0.319999 91.1308 0.319999C93.1788 0.319999 94.6428 0.855999 95.5228 1.928C96.4188 2.984 96.8668 4.552 96.8668 6.632V13.904C96.8668 15.984 96.4188 17.568 95.5228 18.656C94.6428 19.728 93.1788 20.264 91.1308 20.264ZM91.1308 17.432C91.8028 17.432 92.2508 17.208 92.4748 16.76C92.7148 16.296 92.8348 15.664 92.8348 14.864V5.672C92.8348 4.872 92.7148 4.256 92.4748 3.824C92.2508 3.376 91.8028 3.152 91.1308 3.152C90.4588 3.152 90.0028 3.376 89.7628 3.824C89.5388 4.256 89.4268 4.872 89.4268 5.672V14.864C89.4268 15.68 89.5388 16.312 89.7628 16.76C89.9868 17.208 90.4428 17.432 91.1308 17.432ZM101.194 3.488H98.1943V0.559999H108.13V3.488H105.178V20H101.194V3.488ZM109.942 0.559999H113.878V20H109.942V0.559999ZM122.231 20.264C120.167 20.264 118.703 19.712 117.839 18.608C116.975 17.488 116.543 15.88 116.543 13.784V6.824C116.543 4.68 116.967 3.064 117.815 1.976C118.679 0.871999 120.151 0.319999 122.231 0.319999C124.215 0.319999 125.615 0.807999 126.431 1.784C127.263 2.744 127.679 4.128 127.679 5.936V7.568H123.839V5.768C123.839 5.192 123.807 4.728 123.743 4.376C123.695 4.024 123.551 3.736 123.311 3.512C123.087 3.272 122.735 3.152 122.255 3.152C121.535 3.152 121.071 3.384 120.863 3.848C120.655 4.312 120.551 4.992 120.551 5.888V14.72C120.551 15.632 120.671 16.312 120.911 16.76C121.151 17.208 121.599 17.432 122.255 17.432C122.927 17.432 123.359 17.208 123.551 16.76C123.743 16.296 123.839 15.616 123.839 14.72V12.824H127.679V14.432C127.679 16.288 127.271 17.728 126.455 18.752C125.639 19.76 124.231 20.264 122.231 20.264Z" fill="#061B28"/>
</svg>
