<svg width="32" height="32" fill="none" xmlns="http://www.w3.org/2000/svg"><path fill="#E6C8B4" d="M0 0h32v32H0z"/><path d="M26 18.142v-2.858c-.141-1.509-1.217-1.495-2.857-1.429v5.715c2.633.274 2.767-.761 2.857-1.428zM8.857 19.57v-5.715c-1.64-.066-2.716-.08-2.857 1.43v2.857c.09.667.224 1.702 2.857 1.429zm-2.143 3.572h18.572V26H6.714v-2.858zM18.825 8.855c-.45-3.698-5.112-3.914-5.65 0h5.65zM6.839 7.284c.385-.727 1.417-.769 1.853-.076.376.597.069 1.359-.55 1.579v4.354H7.43V8.789a1.067 1.067 0 01-.59-1.505zm12.732 7.643A1.072 1.072 0 1117.963 14a1.074 1.074 0 011.608.927zm-6.608.927a1.074 1.074 0 001.608-.927 1.072 1.072 0 10-1.608.927zm9.466-3.427v10.001H9.57V12.427a2.857 2.857 0 012.858-2.858h7.143a2.857 2.857 0 012.857 2.858zm-9.824 4.046c1.188.684 2.68-.176 2.68-1.546s-1.492-2.23-2.68-1.545c-1.188.684-1.188 2.406 0 3.09zm6.966 2.383h-7.143v1.429h7.143v-1.429zm.715-3.929c0-1.37-1.493-2.23-2.68-1.545-1.189.684-1.189 2.406 0 3.09 1.187.685 2.68-.175 2.68-1.545z" fill="#000"/></svg>