<svg width="32" height="32" viewBox="0 0 32 32" fill="none" xmlns="http://www.w3.org/2000/svg">
<path d="M6.4 3.46181L16 13.0618L25.6 3.4909C25.789 3.29858 26.0159 3.14757 26.2662 3.04743C26.5166 2.94728 26.785 2.90017 27.0545 2.90909C27.5834 2.94331 28.0817 3.16884 28.4564 3.54357C28.8312 3.9183 29.0567 4.41661 29.0909 4.94545C29.0935 5.20547 29.0433 5.46331 28.9433 5.70335C28.8433 5.94338 28.6956 6.16059 28.5091 6.34181L18.88 16L28.5091 25.6582C28.8873 26.0247 29.0967 26.5309 29.0909 27.0545C29.0567 27.5834 28.8312 28.0817 28.4564 28.4564C28.0817 28.8311 27.5834 29.0567 27.0545 29.0909C26.785 29.0998 26.5166 29.0527 26.2662 28.9526C26.0159 28.8524 25.789 28.7014 25.6 28.5091L16 18.9382L6.42909 28.5091C6.24008 28.7014 6.01321 28.8524 5.76284 28.9526C5.51248 29.0527 5.24405 29.0998 4.97454 29.0909C4.43584 29.0629 3.92662 28.8363 3.54518 28.4548C3.16374 28.0734 2.93713 27.5642 2.90909 27.0254C2.90646 26.7654 2.95667 26.5076 3.05668 26.2676C3.1567 26.0275 3.30442 25.8103 3.49091 25.6291L13.12 16L3.46182 6.34181C3.28058 6.15814 3.13823 5.93983 3.04326 5.69991C2.9483 5.46 2.90266 5.2034 2.90909 4.94545C2.94331 4.41661 3.16884 3.9183 3.54357 3.54357C3.9183 3.16884 4.41661 2.94331 4.94545 2.90909C5.21286 2.89638 5.48002 2.93891 5.73027 3.034C5.98053 3.1291 6.20851 3.27473 6.4 3.46181V3.46181Z" fill="#D75A4A"/>
</svg>
