<svg width="24" height="24" viewBox="0 0 24 24" fill="none" xmlns="http://www.w3.org/2000/svg">
<path d="M13.8 4.79999C13.8 4.3226 13.6104 3.86476 13.2728 3.5272C12.9352 3.18963 12.4774 2.99999 12 2.99999C11.5226 2.99999 11.0648 3.18963 10.7272 3.5272C10.3896 3.86476 10.2 4.3226 10.2 4.79999H9C9 4.00434 9.31607 3.24128 9.87868 2.67867C10.4413 2.11606 11.2044 1.79999 12 1.79999C12.7956 1.79999 13.5587 2.11606 14.1213 2.67867C14.6839 3.24128 15 4.00434 15 4.79999H20.4C20.5591 4.79999 20.7117 4.8632 20.8243 4.97572C20.9368 5.08825 21 5.24086 21 5.39999C21 5.55912 20.9368 5.71173 20.8243 5.82425C20.7117 5.93677 20.5591 5.99999 20.4 5.99999H19.7352L18.18 19.476C18.1123 20.0609 17.8319 20.6004 17.3923 20.9921C16.9527 21.3837 16.3844 21.6001 15.7956 21.6H8.2044C7.61562 21.6001 7.04735 21.3837 6.6077 20.9921C6.16806 20.6004 5.88771 20.0609 5.82 19.476L4.2636 5.99999H3.6C3.45957 6.00003 3.32357 5.95082 3.21569 5.86092C3.10781 5.77102 3.03488 5.64612 3.0096 5.50799L3 5.39999C3 5.24086 3.06321 5.08825 3.17574 4.97572C3.28826 4.8632 3.44087 4.79999 3.6 4.79999H13.8ZM18.5256 5.99999H5.4732L7.0116 19.338C7.04547 19.6305 7.18573 19.9004 7.40568 20.0962C7.62562 20.2921 7.90991 20.4002 8.2044 20.4H15.7956C16.0899 20.3999 16.3739 20.2916 16.5936 20.0958C16.8133 19.9 16.9534 19.6303 16.9872 19.338L18.5256 5.99999ZM10.2 8.99999C10.494 8.99999 10.74 9.18599 10.7904 9.43079L10.8 9.52559V16.8756C10.8 17.1648 10.5312 17.4 10.2 17.4C9.906 17.4 9.66 17.214 9.6096 16.9692L9.6 16.8744V9.52679C9.6 9.23639 9.8688 9.00119 10.2 9.00119V8.99999ZM13.8 8.99999C14.094 8.99999 14.34 9.18599 14.3904 9.43079L14.4 9.52559V16.8756C14.4 17.1648 14.1312 17.4 13.8 17.4C13.506 17.4 13.26 17.214 13.2096 16.9692L13.2 16.8744V9.52679C13.2 9.23639 13.4688 9.00119 13.8 9.00119V8.99999Z" fill="black"/>
</svg>
