<svg width="32" height="32" viewBox="0 0 32 32" fill="none" xmlns="http://www.w3.org/2000/svg">
  <path fill-rule="evenodd" clip-rule="evenodd" d="M32 16c0 8.836-7.164 16-16 16S0 24.836 0 16 7.164 0 16 0s16 7.164 16 16zm-15.4267-4.188c-1.556.6467-4.6666 1.9867-9.3306 4.0187-.7574.3013-1.1547.596-1.1907.884-.0613.488.5493.68 1.3787.94.1133.036.2306.072.3506.112.8174.2653 1.916.576 2.4867.588.5187.0106 1.0973-.2027 1.736-.64 4.3573-2.9427 6.6067-4.4294 6.748-4.4614.1-.0226.2387-.052.332.032.0933.0827.084.24.0747.2827-.0614.2573-2.4534 2.4827-3.6934 3.6347-.3866.3586-.66.6133-.716.672a16.3393 16.3393 0 01-.376.372c-.76.7306-1.328 1.28.032 2.176.6534.4306 1.176.7866 1.6974 1.1413.5693.388 1.1373.7747 1.8733 1.2573.1867.1227.3653.2494.54.3734.6627.4733 1.2587.8973 1.9947.8306.4266-.04.8693-.4413 1.0933-1.64.5293-2.8346 1.572-8.9733 1.8133-11.504a2.814 2.814 0 00-.0266-.6293.6746.6746 0 00-.2294-.4333c-.1906-.156-.4866-.1894-.62-.1867-.6013.0107-1.524.332-5.968 2.18z" fill="#fff"/>
</svg>
